<?xml version="1.0" encoding="UTF-8" standalone="no"?>
<!DOCTYPE svg PUBLIC "-//W3C//DTD SVG 1.1//EN" "http://www.w3.org/Graphics/SVG/1.1/DTD/svg11.dtd">
<svg width="100%" height="100%" viewBox="0 0 300 80" version="1.1" xmlns="http://www.w3.org/2000/svg" xmlns:xlink="http://www.w3.org/1999/xlink" xml:space="preserve" xmlns:serif="http://www.serif.com/" style="fill-rule:evenodd;clip-rule:evenodd;stroke-linejoin:round;stroke-miterlimit:2;">
    <g transform="matrix(1.4802,0,0,1.26981,-84.9411,-9.42786)">
        <path d="M61.294,15.345L74.904,15.345C77.329,15.345 79.563,15.962 81.607,17.197C83.651,18.433 85.268,20.072 86.458,22.116C87.648,24.159 88.243,26.394 88.243,28.819C88.243,30.796 87.839,32.66 87.031,34.411C86.222,36.163 85.099,37.668 83.662,38.925C85.099,40.138 86.222,41.631 87.031,43.406C87.839,45.18 88.243,47.055 88.243,49.031L88.243,62.506L81.506,62.506L81.506,49.031C81.506,47.01 80.888,45.382 79.653,44.147C78.418,42.911 76.79,42.294 74.769,42.294L68.031,42.294L68.031,62.506L61.294,62.506L61.294,15.345ZM74.769,35.557C76.79,35.557 78.418,34.939 79.653,33.704C80.888,32.469 81.506,30.84 81.506,28.819C81.506,26.798 80.888,25.17 79.653,23.935C78.418,22.7 76.79,22.082 74.769,22.082L68.031,22.082L68.031,35.557L74.769,35.557Z" style="fill-rule:nonzero;"/>
        <path d="M94.981,62.506C94.037,62.506 93.24,62.18 92.589,61.529C91.938,60.878 91.612,60.08 91.612,59.137C91.612,58.194 91.938,57.397 92.589,56.745C93.24,56.094 94.037,55.769 94.981,55.769C95.924,55.769 96.721,56.094 97.372,56.745C98.024,57.397 98.349,58.194 98.349,59.137C98.349,60.08 98.024,60.878 97.372,61.529C96.721,62.18 95.924,62.506 94.981,62.506Z" style="fill-rule:nonzero;"/>
        <path d="M101.718,15.345L108.455,15.345L108.455,55.769L128.667,55.769L128.667,62.506L101.718,62.506L101.718,15.345Z" style="fill-rule:nonzero;"/>
        <path d="M148.879,28.819C148.879,26.394 149.485,24.148 150.698,22.082C151.911,20.016 153.55,18.376 155.616,17.164C157.682,15.951 159.928,15.345 162.354,15.345C164.779,15.345 167.025,15.951 169.091,17.164C171.157,18.376 172.796,20.016 174.009,22.082C175.222,24.148 175.828,26.394 175.828,28.819L175.828,62.506L169.091,62.506L169.091,42.294L155.616,42.294L155.616,62.506L148.879,62.506L148.879,28.819ZM169.091,35.557L169.091,28.819C169.091,26.798 168.473,25.17 167.238,23.935C166.003,22.7 164.375,22.082 162.354,22.082C160.332,22.082 158.704,22.7 157.469,23.935C156.234,25.17 155.616,26.798 155.616,28.819L155.616,35.557L169.091,35.557Z" style="fill-rule:nonzero;"/>
    </g>
    <g transform="matrix(1.26981,0,0,1.26981,276.761,69.9429)">
        <path d="M-17.67,-37.055L-9.817,-37.055L-9.817,-25.13C-7.409,-26.343 -4.791,-26.949 -1.963,-26.949C0.864,-26.949 3.482,-26.343 5.89,-25.13C8.299,-23.917 10.21,-22.278 11.623,-20.212C13.037,-18.146 13.744,-15.9 13.744,-13.475L13.744,0L5.89,0L5.89,-13.475C5.89,-15.496 5.17,-17.124 3.73,-18.359C2.291,-19.594 0.393,-20.212 -1.963,-20.212C-4.319,-20.212 -6.217,-19.594 -7.657,-18.359C-9.097,-17.124 -9.817,-15.496 -9.817,-13.475L-9.817,0L-17.67,0L-17.67,-37.055Z" style="fill-rule:nonzero;"/>
    </g>
    <g transform="matrix(1.26981,0,0,1.26981,200.142,69.9429)">
        <path d="M-1.963,0C-4.791,0 -7.409,-0.606 -9.817,-1.819C-12.225,-3.032 -14.136,-4.671 -15.55,-6.737C-16.964,-8.803 -17.67,-11.049 -17.67,-13.475L-17.67,-26.949L-9.817,-26.949L-9.817,-13.475C-9.817,-11.453 -9.097,-9.825 -7.657,-8.59C-6.217,-7.355 -4.319,-6.737 -1.963,-6.737C0.393,-6.737 2.291,-7.355 3.73,-8.59C5.17,-9.825 5.89,-11.453 5.89,-13.475L5.89,-26.949L13.744,-26.949L13.744,0L5.89,0L5.89,-1.819C3.482,-0.606 0.864,0 -1.963,0Z" style="fill-rule:nonzero;"/>
    </g>
    <g transform="matrix(1.26981,0,0,1.26981,239.664,69.9429)">
        <path d="M0.236,0C-2.592,0 -5.21,-0.606 -7.618,-1.819C-10.026,-3.032 -11.937,-4.671 -13.351,-6.737C-14.765,-8.803 -15.472,-11.049 -15.472,-13.475L-15.472,-37.055L-7.618,-37.055L-7.618,-26.949L3.691,-26.949L3.691,-20.212L-7.618,-20.212L-7.618,-13.475C-7.618,-11.453 -6.898,-9.825 -5.458,-8.59C-4.018,-7.355 -2.12,-6.737 0.236,-6.737C2.33,-6.737 4.215,-7.411 5.89,-8.758L11.545,-4.716C10.026,-3.324 8.285,-2.19 6.322,-1.314C4.359,-0.438 2.33,0 0.236,0Z" style="fill-rule:nonzero;"/>
    </g>
</svg>
